<mxfile host="app.diagrams.net" agent="Mozilla/5.0 (Windows NT 10.0; Win64; x64) AppleWebKit/537.36 (KHTML, like Gecko) Chrome/134.0.0.0 Safari/537.36" version="26.1.0">
  <diagram name="Page-1" id="urTeFdzw_Zs2AR7c73ZS">
    <mxGraphModel dx="4148" dy="2212" grid="1" gridSize="10" guides="1" tooltips="1" connect="1" arrows="1" fold="1" page="1" pageScale="1" pageWidth="850" pageHeight="1100" math="0" shadow="0">
      <root>
        <mxCell id="0" />
        <mxCell id="1" parent="0" />
        <mxCell id="T2J4ucsc0s5VN6Ix-O75-1" style="edgeStyle=orthogonalEdgeStyle;rounded=0;orthogonalLoop=1;jettySize=auto;html=1;entryX=0.5;entryY=0;entryDx=0;entryDy=0;" parent="1" source="EAPVpHLkBqwuG9wAEfrM-1" target="Drq_LcTDzUUtdLoJdckO-1" edge="1">
          <mxGeometry relative="1" as="geometry" />
        </mxCell>
        <mxCell id="EAPVpHLkBqwuG9wAEfrM-1" value="开始" style="rounded=1;whiteSpace=wrap;html=1;fontSize=16;fillColor=light-dark(#97D077,var(--ge-dark-color, #121212));flipH=1;flipV=1;" parent="1" vertex="1">
          <mxGeometry x="637" y="270" width="370" height="60" as="geometry" />
        </mxCell>
        <mxCell id="T2J4ucsc0s5VN6Ix-O75-2" style="edgeStyle=orthogonalEdgeStyle;rounded=0;orthogonalLoop=1;jettySize=auto;html=1;fontSize=16;" parent="1" source="Drq_LcTDzUUtdLoJdckO-1" target="Drq_LcTDzUUtdLoJdckO-2" edge="1">
          <mxGeometry relative="1" as="geometry" />
        </mxCell>
        <mxCell id="Drq_LcTDzUUtdLoJdckO-1" value="下载并校验升级包" style="rounded=1;whiteSpace=wrap;html=1;fontSize=16;flipH=1;flipV=1;" parent="1" vertex="1">
          <mxGeometry x="637" y="399" width="370" height="60" as="geometry" />
        </mxCell>
        <mxCell id="T2J4ucsc0s5VN6Ix-O75-3" style="edgeStyle=orthogonalEdgeStyle;rounded=0;orthogonalLoop=1;jettySize=auto;html=1;fontSize=16;" parent="1" source="Drq_LcTDzUUtdLoJdckO-2" target="Drq_LcTDzUUtdLoJdckO-3" edge="1">
          <mxGeometry relative="1" as="geometry" />
        </mxCell>
        <mxCell id="Drq_LcTDzUUtdLoJdckO-2" value="解压升级包到备用分区(/back)" style="rounded=1;whiteSpace=wrap;html=1;fontSize=16;flipH=1;flipV=1;" parent="1" vertex="1">
          <mxGeometry x="637" y="527" width="370" height="60" as="geometry" />
        </mxCell>
        <mxCell id="T2J4ucsc0s5VN6Ix-O75-17" style="edgeStyle=orthogonalEdgeStyle;rounded=0;orthogonalLoop=1;jettySize=auto;html=1;fontSize=16;" parent="1" source="Drq_LcTDzUUtdLoJdckO-3" target="Drq_LcTDzUUtdLoJdckO-4" edge="1">
          <mxGeometry relative="1" as="geometry" />
        </mxCell>
        <mxCell id="T2J4ucsc0s5VN6Ix-O75-26" style="edgeStyle=orthogonalEdgeStyle;rounded=0;orthogonalLoop=1;jettySize=auto;html=1;entryX=1;entryY=0.5;entryDx=0;entryDy=0;curved=1;fontSize=16;" parent="1" source="Drq_LcTDzUUtdLoJdckO-3" target="Drq_LcTDzUUtdLoJdckO-20" edge="1">
          <mxGeometry relative="1" as="geometry" />
        </mxCell>
        <mxCell id="Drq_LcTDzUUtdLoJdckO-3" value="同步当前系统配置到备用分区" style="rounded=1;whiteSpace=wrap;html=1;fontSize=16;flipH=1;flipV=1;" parent="1" vertex="1">
          <mxGeometry x="637" y="656" width="370" height="60" as="geometry" />
        </mxCell>
        <mxCell id="T2J4ucsc0s5VN6Ix-O75-11" style="edgeStyle=orthogonalEdgeStyle;rounded=0;orthogonalLoop=1;jettySize=auto;html=1;fontSize=16;" parent="1" source="Drq_LcTDzUUtdLoJdckO-4" target="Drq_LcTDzUUtdLoJdckO-6" edge="1">
          <mxGeometry relative="1" as="geometry" />
        </mxCell>
        <mxCell id="Drq_LcTDzUUtdLoJdckO-4" value="禁用GRUB_OS_PROBER&lt;div&gt;设置GRUB_SAVEDEFAULT&lt;/div&gt;" style="rounded=1;whiteSpace=wrap;html=1;fontSize=16;flipH=1;flipV=1;" parent="1" vertex="1">
          <mxGeometry x="637" y="785" width="370" height="60" as="geometry" />
        </mxCell>
        <mxCell id="T2J4ucsc0s5VN6Ix-O75-12" style="edgeStyle=orthogonalEdgeStyle;rounded=0;orthogonalLoop=1;jettySize=auto;html=1;fontSize=16;" parent="1" source="Drq_LcTDzUUtdLoJdckO-6" target="Drq_LcTDzUUtdLoJdckO-7" edge="1">
          <mxGeometry relative="1" as="geometry" />
        </mxCell>
        <mxCell id="T2J4ucsc0s5VN6Ix-O75-22" value="否" style="edgeLabel;html=1;align=center;verticalAlign=middle;resizable=0;points=[];fontSize=16;" parent="T2J4ucsc0s5VN6Ix-O75-12" vertex="1" connectable="0">
          <mxGeometry x="-0.0357" y="-1" relative="1" as="geometry">
            <mxPoint as="offset" />
          </mxGeometry>
        </mxCell>
        <mxCell id="T2J4ucsc0s5VN6Ix-O75-20" style="edgeStyle=orthogonalEdgeStyle;rounded=0;orthogonalLoop=1;jettySize=auto;html=1;entryX=0;entryY=0.5;entryDx=0;entryDy=0;curved=1;fontSize=16;" parent="1" source="Drq_LcTDzUUtdLoJdckO-6" target="Drq_LcTDzUUtdLoJdckO-12" edge="1">
          <mxGeometry relative="1" as="geometry" />
        </mxCell>
        <mxCell id="T2J4ucsc0s5VN6Ix-O75-23" value="&lt;font&gt;是&lt;/font&gt;" style="edgeLabel;html=1;align=center;verticalAlign=middle;resizable=0;points=[];fontSize=16;" parent="T2J4ucsc0s5VN6Ix-O75-20" vertex="1" connectable="0">
          <mxGeometry x="-0.1113" y="-1" relative="1" as="geometry">
            <mxPoint y="1" as="offset" />
          </mxGeometry>
        </mxCell>
        <mxCell id="Drq_LcTDzUUtdLoJdckO-6" value="目标系统的GRUB版本高于当前系统?" style="rhombus;whiteSpace=wrap;html=1;fontSize=16;flipH=1;flipV=1;fillColor=light-dark(#FFB570,var(--ge-dark-color, #121212));" parent="1" vertex="1">
          <mxGeometry x="637" y="905" width="370" height="80" as="geometry" />
        </mxCell>
        <mxCell id="T2J4ucsc0s5VN6Ix-O75-13" style="edgeStyle=orthogonalEdgeStyle;rounded=0;orthogonalLoop=1;jettySize=auto;html=1;fontSize=16;" parent="1" source="Drq_LcTDzUUtdLoJdckO-7" target="Drq_LcTDzUUtdLoJdckO-8" edge="1">
          <mxGeometry relative="1" as="geometry" />
        </mxCell>
        <mxCell id="Drq_LcTDzUUtdLoJdckO-7" value="&lt;div&gt;生成grub.cfg&lt;/div&gt;grub2-mkconfig -o /boot/grub2/grub.cfg" style="rounded=1;whiteSpace=wrap;html=1;fontSize=16;flipH=1;flipV=1;" parent="1" vertex="1">
          <mxGeometry x="637" y="1041" width="370" height="60" as="geometry" />
        </mxCell>
        <mxCell id="T2J4ucsc0s5VN6Ix-O75-14" style="edgeStyle=orthogonalEdgeStyle;rounded=0;orthogonalLoop=1;jettySize=auto;html=1;entryX=0.5;entryY=0;entryDx=0;entryDy=0;fontSize=16;" parent="1" source="Drq_LcTDzUUtdLoJdckO-8" target="Drq_LcTDzUUtdLoJdckO-9" edge="1">
          <mxGeometry relative="1" as="geometry" />
        </mxCell>
        <mxCell id="Drq_LcTDzUUtdLoJdckO-8" value="保留默认启动项, 删除其他所有启动项&lt;div&gt;grubby --remove-kernel&lt;/div&gt;" style="rounded=1;whiteSpace=wrap;html=1;fontSize=16;flipH=1;flipV=1;" parent="1" vertex="1">
          <mxGeometry x="637" y="1170" width="370" height="60" as="geometry" />
        </mxCell>
        <mxCell id="T2J4ucsc0s5VN6Ix-O75-15" style="edgeStyle=orthogonalEdgeStyle;rounded=0;orthogonalLoop=1;jettySize=auto;html=1;fontSize=16;" parent="1" source="Drq_LcTDzUUtdLoJdckO-9" target="Drq_LcTDzUUtdLoJdckO-11" edge="1">
          <mxGeometry relative="1" as="geometry" />
        </mxCell>
        <mxCell id="Drq_LcTDzUUtdLoJdckO-9" value="添加备用分区的启动项，并设置为默认启动项&lt;div&gt;grubby --add-kernel,&amp;nbsp;&lt;span style=&quot;background-color: transparent; color: light-dark(rgb(0, 0, 0), rgb(255, 255, 255));&quot;&gt;grubby --set-default&amp;nbsp;&lt;/span&gt;&lt;/div&gt;" style="rounded=1;whiteSpace=wrap;html=1;fontSize=16;flipH=1;flipV=1;" parent="1" vertex="1">
          <mxGeometry x="637" y="1298" width="370" height="60" as="geometry" />
        </mxCell>
        <mxCell id="T2J4ucsc0s5VN6Ix-O75-16" style="edgeStyle=orthogonalEdgeStyle;rounded=0;orthogonalLoop=1;jettySize=auto;html=1;fontSize=16;" parent="1" source="Drq_LcTDzUUtdLoJdckO-11" target="Drq_LcTDzUUtdLoJdckO-26" edge="1">
          <mxGeometry relative="1" as="geometry" />
        </mxCell>
        <mxCell id="Drq_LcTDzUUtdLoJdckO-11" value="重启，切换到目标系统" style="rounded=1;whiteSpace=wrap;html=1;fontSize=16;flipH=1;flipV=1;" parent="1" vertex="1">
          <mxGeometry x="637" y="1427" width="370" height="60" as="geometry" />
        </mxCell>
        <mxCell id="T2J4ucsc0s5VN6Ix-O75-27" style="edgeStyle=orthogonalEdgeStyle;rounded=0;orthogonalLoop=1;jettySize=auto;html=1;entryX=0.5;entryY=0;entryDx=0;entryDy=0;" parent="1" source="Drq_LcTDzUUtdLoJdckO-12" target="Drq_LcTDzUUtdLoJdckO-13" edge="1">
          <mxGeometry relative="1" as="geometry" />
        </mxCell>
        <mxCell id="Drq_LcTDzUUtdLoJdckO-12" value="&lt;div&gt;备份/boot分区所有文件&lt;/div&gt;" style="rounded=1;whiteSpace=wrap;html=1;fontSize=16;" parent="1" vertex="1">
          <mxGeometry x="1180" y="656" width="370" height="60" as="geometry" />
        </mxCell>
        <mxCell id="T2J4ucsc0s5VN6Ix-O75-28" style="edgeStyle=orthogonalEdgeStyle;rounded=0;orthogonalLoop=1;jettySize=auto;html=1;" parent="1" source="Drq_LcTDzUUtdLoJdckO-13" target="Drq_LcTDzUUtdLoJdckO-14" edge="1">
          <mxGeometry relative="1" as="geometry" />
        </mxCell>
        <mxCell id="Drq_LcTDzUUtdLoJdckO-13" value="目标系统的boot文件拷贝到/boot&lt;div&gt;当前系统的vmlinuz, initrd拷贝到/boot&lt;/div&gt;" style="rounded=1;whiteSpace=wrap;html=1;fontSize=16;" parent="1" vertex="1">
          <mxGeometry x="1180" y="785" width="370" height="60" as="geometry" />
        </mxCell>
        <mxCell id="T2J4ucsc0s5VN6Ix-O75-29" style="edgeStyle=orthogonalEdgeStyle;rounded=0;orthogonalLoop=1;jettySize=auto;html=1;entryX=0.5;entryY=0;entryDx=0;entryDy=0;" parent="1" source="Drq_LcTDzUUtdLoJdckO-14" target="Drq_LcTDzUUtdLoJdckO-15" edge="1">
          <mxGeometry relative="1" as="geometry" />
        </mxCell>
        <mxCell id="Drq_LcTDzUUtdLoJdckO-14" value="把/boot分区挂载到备用分区(/back/boot)" style="rounded=1;whiteSpace=wrap;html=1;fontSize=16;" parent="1" vertex="1">
          <mxGeometry x="1180" y="915" width="370" height="60" as="geometry" />
        </mxCell>
        <mxCell id="T2J4ucsc0s5VN6Ix-O75-30" style="edgeStyle=orthogonalEdgeStyle;rounded=0;orthogonalLoop=1;jettySize=auto;html=1;entryX=0.5;entryY=0;entryDx=0;entryDy=0;" parent="1" source="Drq_LcTDzUUtdLoJdckO-15" target="Drq_LcTDzUUtdLoJdckO-16" edge="1">
          <mxGeometry relative="1" as="geometry" />
        </mxCell>
        <mxCell id="Drq_LcTDzUUtdLoJdckO-15" value="chroot生成grub.cfg" style="rounded=1;whiteSpace=wrap;html=1;fontSize=16;" parent="1" vertex="1">
          <mxGeometry x="1180" y="1041" width="370" height="60" as="geometry" />
        </mxCell>
        <mxCell id="T2J4ucsc0s5VN6Ix-O75-31" style="edgeStyle=orthogonalEdgeStyle;rounded=0;orthogonalLoop=1;jettySize=auto;html=1;entryX=0.5;entryY=0;entryDx=0;entryDy=0;" parent="1" source="Drq_LcTDzUUtdLoJdckO-16" target="Drq_LcTDzUUtdLoJdckO-17" edge="1">
          <mxGeometry relative="1" as="geometry" />
        </mxCell>
        <mxCell id="Drq_LcTDzUUtdLoJdckO-16" value="chroot添加源系统的启动项" style="rounded=1;whiteSpace=wrap;html=1;fontSize=16;" parent="1" vertex="1">
          <mxGeometry x="1180" y="1170" width="370" height="60" as="geometry" />
        </mxCell>
        <mxCell id="T2J4ucsc0s5VN6Ix-O75-32" style="edgeStyle=orthogonalEdgeStyle;rounded=0;orthogonalLoop=1;jettySize=auto;html=1;" parent="1" source="Drq_LcTDzUUtdLoJdckO-17" target="Drq_LcTDzUUtdLoJdckO-18" edge="1">
          <mxGeometry relative="1" as="geometry" />
        </mxCell>
        <mxCell id="Drq_LcTDzUUtdLoJdckO-17" value="安装目标系统的GRUB到MBR&lt;div&gt;chroot /back grub2-install /dev/sda&lt;/div&gt;" style="rounded=1;whiteSpace=wrap;html=1;fontSize=16;" parent="1" vertex="1">
          <mxGeometry x="1180" y="1298" width="370" height="60" as="geometry" />
        </mxCell>
        <mxCell id="T2J4ucsc0s5VN6Ix-O75-33" style="edgeStyle=orthogonalEdgeStyle;rounded=0;orthogonalLoop=1;jettySize=auto;html=1;" parent="1" source="Drq_LcTDzUUtdLoJdckO-18" target="Drq_LcTDzUUtdLoJdckO-19" edge="1">
          <mxGeometry relative="1" as="geometry" />
        </mxCell>
        <mxCell id="T2J4ucsc0s5VN6Ix-O75-38" value="否" style="edgeLabel;html=1;align=center;verticalAlign=middle;resizable=0;points=[];fontSize=16;" parent="T2J4ucsc0s5VN6Ix-O75-33" vertex="1" connectable="0">
          <mxGeometry x="-0.2617" y="-4" relative="1" as="geometry">
            <mxPoint as="offset" />
          </mxGeometry>
        </mxCell>
        <mxCell id="T2J4ucsc0s5VN6Ix-O75-35" style="edgeStyle=orthogonalEdgeStyle;rounded=0;orthogonalLoop=1;jettySize=auto;html=1;entryX=1;entryY=0.5;entryDx=0;entryDy=0;curved=1;" parent="1" source="Drq_LcTDzUUtdLoJdckO-18" target="Drq_LcTDzUUtdLoJdckO-11" edge="1">
          <mxGeometry relative="1" as="geometry" />
        </mxCell>
        <mxCell id="T2J4ucsc0s5VN6Ix-O75-36" value="&lt;font style=&quot;font-size: 16px;&quot;&gt;是&lt;/font&gt;" style="edgeLabel;html=1;align=center;verticalAlign=middle;resizable=0;points=[];" parent="T2J4ucsc0s5VN6Ix-O75-35" vertex="1" connectable="0">
          <mxGeometry x="0.0199" relative="1" as="geometry">
            <mxPoint as="offset" />
          </mxGeometry>
        </mxCell>
        <mxCell id="Drq_LcTDzUUtdLoJdckO-18" value="GRUB设置是否成功" style="rhombus;whiteSpace=wrap;html=1;fontSize=16;fillColor=light-dark(#FFB570,#000000);" parent="1" vertex="1">
          <mxGeometry x="1180" y="1417" width="370" height="80" as="geometry" />
        </mxCell>
        <mxCell id="T2J4ucsc0s5VN6Ix-O75-37" style="edgeStyle=orthogonalEdgeStyle;rounded=0;orthogonalLoop=1;jettySize=auto;html=1;entryX=1;entryY=0.5;entryDx=0;entryDy=0;" parent="1" source="Drq_LcTDzUUtdLoJdckO-19" target="Drq_LcTDzUUtdLoJdckO-26" edge="1">
          <mxGeometry relative="1" as="geometry" />
        </mxCell>
        <mxCell id="Drq_LcTDzUUtdLoJdckO-19" value="回滚GRUB配置, 上报升级失败&amp;nbsp;" style="rounded=1;whiteSpace=wrap;html=1;fontSize=16;" parent="1" vertex="1">
          <mxGeometry x="1180" y="1555" width="370" height="60" as="geometry" />
        </mxCell>
        <mxCell id="T2J4ucsc0s5VN6Ix-O75-5" style="edgeStyle=orthogonalEdgeStyle;rounded=0;orthogonalLoop=1;jettySize=auto;html=1;fontSize=16;" parent="1" source="Drq_LcTDzUUtdLoJdckO-20" target="Drq_LcTDzUUtdLoJdckO-21" edge="1">
          <mxGeometry relative="1" as="geometry" />
        </mxCell>
        <mxCell id="Drq_LcTDzUUtdLoJdckO-20" value="同步系统配置 (网卡, hostname, ntp)" style="rounded=1;whiteSpace=wrap;html=1;fontSize=16;" parent="1" vertex="1">
          <mxGeometry x="100" y="911" width="370" height="60" as="geometry" />
        </mxCell>
        <mxCell id="T2J4ucsc0s5VN6Ix-O75-6" style="edgeStyle=orthogonalEdgeStyle;rounded=0;orthogonalLoop=1;jettySize=auto;html=1;fontSize=16;" parent="1" source="Drq_LcTDzUUtdLoJdckO-21" target="Drq_LcTDzUUtdLoJdckO-22" edge="1">
          <mxGeometry relative="1" as="geometry" />
        </mxCell>
        <mxCell id="Drq_LcTDzUUtdLoJdckO-21" value="同步LVM分区配置 (/etc/lvm)" style="rounded=1;whiteSpace=wrap;html=1;fontSize=16;" parent="1" vertex="1">
          <mxGeometry x="100" y="1040" width="370" height="60" as="geometry" />
        </mxCell>
        <mxCell id="T2J4ucsc0s5VN6Ix-O75-7" style="edgeStyle=orthogonalEdgeStyle;rounded=0;orthogonalLoop=1;jettySize=auto;html=1;entryX=0.5;entryY=0;entryDx=0;entryDy=0;fontSize=16;" parent="1" source="Drq_LcTDzUUtdLoJdckO-22" target="Drq_LcTDzUUtdLoJdckO-23" edge="1">
          <mxGeometry relative="1" as="geometry" />
        </mxCell>
        <mxCell id="Drq_LcTDzUUtdLoJdckO-22" value="同步用户口令，SSH key" style="rounded=1;whiteSpace=wrap;html=1;fontSize=16;" parent="1" vertex="1">
          <mxGeometry x="100" y="1170" width="370" height="60" as="geometry" />
        </mxCell>
        <mxCell id="T2J4ucsc0s5VN6Ix-O75-8" style="edgeStyle=orthogonalEdgeStyle;rounded=0;orthogonalLoop=1;jettySize=auto;html=1;fontSize=16;" parent="1" source="Drq_LcTDzUUtdLoJdckO-23" target="Drq_LcTDzUUtdLoJdckO-24" edge="1">
          <mxGeometry relative="1" as="geometry" />
        </mxCell>
        <mxCell id="Drq_LcTDzUUtdLoJdckO-23" value="同步证书 (/etc/pki/tls/certs)" style="rounded=1;whiteSpace=wrap;html=1;fontSize=16;" parent="1" vertex="1">
          <mxGeometry x="100" y="1296" width="370" height="60" as="geometry" />
        </mxCell>
        <mxCell id="T2J4ucsc0s5VN6Ix-O75-25" style="edgeStyle=orthogonalEdgeStyle;rounded=0;orthogonalLoop=1;jettySize=auto;html=1;fontSize=16;" parent="1" source="Drq_LcTDzUUtdLoJdckO-24" target="T2J4ucsc0s5VN6Ix-O75-19" edge="1">
          <mxGeometry relative="1" as="geometry" />
        </mxCell>
        <mxCell id="Drq_LcTDzUUtdLoJdckO-24" value="改备用分区的/etc/fstab, 指定两个系统分区挂载路径" style="rounded=1;whiteSpace=wrap;html=1;fontSize=16;" parent="1" vertex="1">
          <mxGeometry x="100" y="1425" width="370" height="60" as="geometry" />
        </mxCell>
        <mxCell id="Drq_LcTDzUUtdLoJdckO-26" value="升级结束" style="rounded=1;whiteSpace=wrap;html=1;fontSize=16;flipH=1;flipV=1;fillColor=light-dark(#97D077,var(--ge-dark-color, #121212));" parent="1" vertex="1">
          <mxGeometry x="637" y="1555" width="370" height="60" as="geometry" />
        </mxCell>
        <mxCell id="T2J4ucsc0s5VN6Ix-O75-19" value="结束" style="rounded=1;whiteSpace=wrap;html=1;fontSize=16;flipH=1;flipV=1;fillColor=light-dark(#97D077,var(--ge-dark-color, #121212));" parent="1" vertex="1">
          <mxGeometry x="100" y="1555" width="370" height="60" as="geometry" />
        </mxCell>
      </root>
    </mxGraphModel>
  </diagram>
</mxfile>
